<mxfile modified="2020-11-27T15:31:53.157Z" host="app.diagrams.net" agent="5.0 (Windows)" etag="xFcu35hYJ34CoaLKCRmm" version="13.10.4" type="github">
  <diagram id="Ht1M8jgEwFfnCIfOTk4-" name="Page-1">
    <mxGraphModel dx="1038" dy="1374" grid="1" gridSize="10" guides="1" tooltips="1" connect="1" arrows="1" fold="1" page="1" pageScale="1" pageWidth="1169" pageHeight="827" math="0" shadow="0">
      <root>
        <mxCell id="0" />
        <mxCell id="1" parent="0" />
        <mxCell id="ZVcsY9Rh3zBBVXqX1Ra8-1" value="&lt;h1&gt;README&lt;br&gt;&lt;/h1&gt;&lt;p&gt;&lt;font style=&quot;font-size: 18px&quot;&gt;L&#39;architecture présentée omet certains détails par mesure de sécurité. &lt;br&gt;&lt;/font&gt;&lt;/p&gt;&lt;p&gt;&lt;font style=&quot;font-size: 18px&quot;&gt;De plus elle a été développée pour AWS China qui présente de nombreuses différences avec AWS Global.&lt;/font&gt;&lt;br&gt;&lt;/p&gt;" style="text;html=1;strokeColor=none;fillColor=none;spacing=5;spacingTop=-20;whiteSpace=wrap;overflow=hidden;rounded=0;" vertex="1" parent="1">
          <mxGeometry x="30" y="-30" width="390" height="190" as="geometry" />
        </mxCell>
        <mxCell id="ZVcsY9Rh3zBBVXqX1Ra8-6" style="edgeStyle=orthogonalEdgeStyle;rounded=0;orthogonalLoop=1;jettySize=auto;html=1;" edge="1" parent="1" source="ZVcsY9Rh3zBBVXqX1Ra8-3" target="ZVcsY9Rh3zBBVXqX1Ra8-4">
          <mxGeometry relative="1" as="geometry" />
        </mxCell>
        <mxCell id="ZVcsY9Rh3zBBVXqX1Ra8-3" value="&lt;b&gt;S3 : &lt;/b&gt;Anna" style="outlineConnect=0;fontColor=#232F3E;gradientColor=#60A337;gradientDirection=north;fillColor=#277116;strokeColor=#ffffff;dashed=0;verticalLabelPosition=bottom;verticalAlign=top;align=center;html=1;fontSize=12;fontStyle=0;aspect=fixed;shape=mxgraph.aws4.resourceIcon;resIcon=mxgraph.aws4.s3;" vertex="1" parent="1">
          <mxGeometry x="330" y="230" width="78" height="78" as="geometry" />
        </mxCell>
        <mxCell id="ZVcsY9Rh3zBBVXqX1Ra8-4" value="&lt;b&gt;CloudFront&lt;/b&gt;" style="outlineConnect=0;fontColor=#232F3E;gradientColor=#945DF2;gradientDirection=north;fillColor=#5A30B5;strokeColor=#ffffff;dashed=0;verticalLabelPosition=bottom;verticalAlign=top;align=center;html=1;fontSize=12;fontStyle=0;aspect=fixed;shape=mxgraph.aws4.resourceIcon;resIcon=mxgraph.aws4.cloudfront;" vertex="1" parent="1">
          <mxGeometry x="150" y="230" width="78" height="78" as="geometry" />
        </mxCell>
        <mxCell id="ZVcsY9Rh3zBBVXqX1Ra8-7" value="TTL" style="text;html=1;strokeColor=none;fillColor=none;align=center;verticalAlign=middle;whiteSpace=wrap;rounded=0;" vertex="1" parent="1">
          <mxGeometry x="140" y="330" width="100" height="60" as="geometry" />
        </mxCell>
      </root>
    </mxGraphModel>
  </diagram>
</mxfile>
